<?xml version="1.0" encoding="utf-8" standalone="no"?>
<!DOCTYPE svg PUBLIC "-//W3C//DTD SVG 1.1//EN"
  "http://www.w3.org/Graphics/SVG/1.1/DTD/svg11.dtd">
<svg xmlns:xlink="http://www.w3.org/1999/xlink" width="1008pt" height="432pt" viewBox="0 0 1008 432" xmlns="http://www.w3.org/2000/svg" version="1.1">
 <metadata>
  <rdf:RDF xmlns:dc="http://purl.org/dc/elements/1.1/" xmlns:cc="http://creativecommons.org/ns#" xmlns:rdf="http://www.w3.org/1999/02/22-rdf-syntax-ns#">
   <cc:Work>
    <dc:type rdf:resource="http://purl.org/dc/dcmitype/StillImage"/>
    <dc:date>2024-01-22T08:57:00.465492</dc:date>
    <dc:format>image/svg+xml</dc:format>
    <dc:creator>
     <cc:Agent>
      <dc:title>Matplotlib v3.8.2, https://matplotlib.org/</dc:title>
     </cc:Agent>
    </dc:creator>
   </cc:Work>
  </rdf:RDF>
 </metadata>
 <defs>
  <style type="text/css">*{stroke-linejoin: round; stroke-linecap: butt}</style>
 </defs>
 <g id="figure_1">
  <g id="patch_1">
   <path d="M 0 432 
L 1008 432 
L 1008 0 
L 0 0 
z
" style="fill: #ffffff"/>
  </g>
  <g id="axes_1">
   <g id="patch_2">
    <path d="M 57.17 404.12 
L 997.2 404.12 
L 997.2 26.88 
L 57.17 26.88 
z
" style="fill: #ffffff"/>
   </g>
   <g id="patch_3">
    <path d="M 99.898636 495.881081 
L 108.155378 495.881081 
L 108.155378 251.184865 
L 99.898636 251.184865 
z
" clip-path="url(#p1dba45cb3f)" style="fill: #87ceeb"/>
   </g>
   <g id="patch_4">
    <path d="M 110.219563 495.881081 
L 118.476304 495.881081 
L 118.476304 286.86973 
L 110.219563 286.86973 
z
" clip-path="url(#p1dba45cb3f)" style="fill: #87ceeb"/>
   </g>
   <g id="patch_5">
    <path d="M 120.54049 495.881081 
L 128.797231 495.881081 
L 128.797231 297.065405 
L 120.54049 297.065405 
z
" clip-path="url(#p1dba45cb3f)" style="fill: #87ceeb"/>
   </g>
   <g id="patch_6">
    <path d="M 130.861416 495.881081 
L 139.118158 495.881081 
L 139.118158 261.380541 
L 130.861416 261.380541 
z
" clip-path="url(#p1dba45cb3f)" style="fill: #87ceeb"/>
   </g>
   <g id="patch_7">
    <path d="M 141.182343 495.881081 
L 149.439084 495.881081 
L 149.439084 327.652432 
L 141.182343 327.652432 
z
" clip-path="url(#p1dba45cb3f)" style="fill: #87ceeb"/>
   </g>
   <g id="patch_8">
    <path d="M 151.50327 495.881081 
L 159.760011 495.881081 
L 159.760011 210.402162 
L 151.50327 210.402162 
z
" clip-path="url(#p1dba45cb3f)" style="fill: #87ceeb"/>
   </g>
   <g id="patch_9">
    <path d="M 161.824196 495.881081 
L 170.080938 495.881081 
L 170.080938 332.75027 
L 161.824196 332.75027 
z
" clip-path="url(#p1dba45cb3f)" style="fill: #87ceeb"/>
   </g>
   <g id="patch_10">
    <path d="M 172.145123 495.881081 
L 180.401864 495.881081 
L 180.401864 307.261081 
L 172.145123 307.261081 
z
" clip-path="url(#p1dba45cb3f)" style="fill: #87ceeb"/>
   </g>
   <g id="patch_11">
    <path d="M 182.46605 495.881081 
L 190.722791 495.881081 
L 190.722791 281.771892 
L 182.46605 281.771892 
z
" clip-path="url(#p1dba45cb3f)" style="fill: #87ceeb"/>
   </g>
   <g id="patch_12">
    <path d="M 192.786976 495.881081 
L 201.043718 495.881081 
L 201.043718 276.674054 
L 192.786976 276.674054 
z
" clip-path="url(#p1dba45cb3f)" style="fill: #87ceeb"/>
   </g>
   <g id="patch_13">
    <path d="M 203.107903 495.881081 
L 211.364644 495.881081 
L 211.364644 266.478378 
L 203.107903 266.478378 
z
" clip-path="url(#p1dba45cb3f)" style="fill: #87ceeb"/>
   </g>
   <g id="patch_14">
    <path d="M 213.42883 495.881081 
L 221.685571 495.881081 
L 221.685571 291.967568 
L 213.42883 291.967568 
z
" clip-path="url(#p1dba45cb3f)" style="fill: #87ceeb"/>
   </g>
   <g id="patch_15">
    <path d="M 223.749756 495.881081 
L 232.006498 495.881081 
L 232.006498 240.989189 
L 223.749756 240.989189 
z
" clip-path="url(#p1dba45cb3f)" style="fill: #87ceeb"/>
   </g>
   <g id="patch_16">
    <path d="M 234.070683 495.881081 
L 242.327424 495.881081 
L 242.327424 378.630811 
L 234.070683 378.630811 
z
" clip-path="url(#p1dba45cb3f)" style="fill: #87ceeb"/>
   </g>
   <g id="patch_17">
    <path d="M 244.39161 495.881081 
L 252.648351 495.881081 
L 252.648351 286.86973 
L 244.39161 286.86973 
z
" clip-path="url(#p1dba45cb3f)" style="fill: #87ceeb"/>
   </g>
   <g id="patch_18">
    <path d="M 254.712536 495.881081 
L 262.969278 495.881081 
L 262.969278 271.576216 
L 254.712536 271.576216 
z
" clip-path="url(#p1dba45cb3f)" style="fill: #87ceeb"/>
   </g>
   <g id="patch_19">
    <path d="M 265.033463 495.881081 
L 273.290204 495.881081 
L 273.290204 72.760541 
L 265.033463 72.760541 
z
" clip-path="url(#p1dba45cb3f)" style="fill: #87ceeb"/>
   </g>
   <g id="patch_20">
    <path d="M 275.35439 495.881081 
L 283.611131 495.881081 
L 283.611131 225.695676 
L 275.35439 225.695676 
z
" clip-path="url(#p1dba45cb3f)" style="fill: #87ceeb"/>
   </g>
   <g id="patch_21">
    <path d="M 285.675316 495.881081 
L 293.932058 495.881081 
L 293.932058 195.108649 
L 285.675316 195.108649 
z
" clip-path="url(#p1dba45cb3f)" style="fill: #87ceeb"/>
   </g>
   <g id="patch_22">
    <path d="M 295.996243 495.881081 
L 304.252984 495.881081 
L 304.252984 159.423784 
L 295.996243 159.423784 
z
" clip-path="url(#p1dba45cb3f)" style="fill: #87ceeb"/>
   </g>
   <g id="patch_23">
    <path d="M 306.31717 495.881081 
L 314.573911 495.881081 
L 314.573911 190.010811 
L 306.31717 190.010811 
z
" clip-path="url(#p1dba45cb3f)" style="fill: #87ceeb"/>
   </g>
   <g id="patch_24">
    <path d="M 316.638096 495.881081 
L 324.894838 495.881081 
L 324.894838 200.206486 
L 316.638096 200.206486 
z
" clip-path="url(#p1dba45cb3f)" style="fill: #87ceeb"/>
   </g>
   <g id="patch_25">
    <path d="M 326.959023 495.881081 
L 335.215764 495.881081 
L 335.215764 195.108649 
L 326.959023 195.108649 
z
" clip-path="url(#p1dba45cb3f)" style="fill: #87ceeb"/>
   </g>
   <g id="patch_26">
    <path d="M 337.279949 495.881081 
L 345.536691 495.881081 
L 345.536691 332.75027 
L 337.279949 332.75027 
z
" clip-path="url(#p1dba45cb3f)" style="fill: #87ceeb"/>
   </g>
   <g id="patch_27">
    <path d="M 347.600876 495.881081 
L 355.857617 495.881081 
L 355.857617 210.402162 
L 347.600876 210.402162 
z
" clip-path="url(#p1dba45cb3f)" style="fill: #87ceeb"/>
   </g>
   <g id="patch_28">
    <path d="M 357.921803 495.881081 
L 366.178544 495.881081 
L 366.178544 93.151892 
L 357.921803 93.151892 
z
" clip-path="url(#p1dba45cb3f)" style="fill: #87ceeb"/>
   </g>
   <g id="patch_29">
    <path d="M 368.242729 495.881081 
L 376.499471 495.881081 
L 376.499471 159.423784 
L 368.242729 159.423784 
z
" clip-path="url(#p1dba45cb3f)" style="fill: #87ceeb"/>
   </g>
   <g id="patch_30">
    <path d="M 378.563656 495.881081 
L 386.820397 495.881081 
L 386.820397 98.24973 
L 378.563656 98.24973 
z
" clip-path="url(#p1dba45cb3f)" style="fill: #87ceeb"/>
   </g>
   <g id="patch_31">
    <path d="M 388.884583 495.881081 
L 397.141324 495.881081 
L 397.141324 88.054054 
L 388.884583 88.054054 
z
" clip-path="url(#p1dba45cb3f)" style="fill: #87ceeb"/>
   </g>
   <g id="patch_32">
    <path d="M 399.205509 495.881081 
L 407.462251 495.881081 
L 407.462251 230.793514 
L 399.205509 230.793514 
z
" clip-path="url(#p1dba45cb3f)" style="fill: #87ceeb"/>
   </g>
   <g id="patch_33">
    <path d="M 409.526436 495.881081 
L 417.783177 495.881081 
L 417.783177 154.325946 
L 409.526436 154.325946 
z
" clip-path="url(#p1dba45cb3f)" style="fill: #87ceeb"/>
   </g>
   <g id="patch_34">
    <path d="M 419.847363 495.881081 
L 428.104104 495.881081 
L 428.104104 154.325946 
L 419.847363 154.325946 
z
" clip-path="url(#p1dba45cb3f)" style="fill: #87ceeb"/>
   </g>
   <g id="patch_35">
    <path d="M 430.168289 495.881081 
L 438.425031 495.881081 
L 438.425031 276.674054 
L 430.168289 276.674054 
z
" clip-path="url(#p1dba45cb3f)" style="fill: #87ceeb"/>
   </g>
   <g id="patch_36">
    <path d="M 440.489216 495.881081 
L 448.745957 495.881081 
L 448.745957 136.483514 
L 440.489216 136.483514 
z
" clip-path="url(#p1dba45cb3f)" style="fill: #87ceeb"/>
   </g>
   <g id="patch_37">
    <path d="M 450.810143 495.881081 
L 459.066884 495.881081 
L 459.066884 169.619459 
L 450.810143 169.619459 
z
" clip-path="url(#p1dba45cb3f)" style="fill: #87ceeb"/>
   </g>
   <g id="patch_38">
    <path d="M 461.131069 495.881081 
L 469.387811 495.881081 
L 469.387811 200.206486 
L 461.131069 200.206486 
z
" clip-path="url(#p1dba45cb3f)" style="fill: #87ceeb"/>
   </g>
   <g id="patch_39">
    <path d="M 471.451996 495.881081 
L 479.708737 495.881081 
L 479.708737 215.5 
L 471.451996 215.5 
z
" clip-path="url(#p1dba45cb3f)" style="fill: #87ceeb"/>
   </g>
   <g id="patch_40">
    <path d="M 481.772923 495.881081 
L 490.029664 495.881081 
L 490.029664 230.793514 
L 481.772923 230.793514 
z
" clip-path="url(#p1dba45cb3f)" style="fill: #87ceeb"/>
   </g>
   <g id="patch_41">
    <path d="M 492.093849 495.881081 
L 500.350591 495.881081 
L 500.350591 139.032432 
L 492.093849 139.032432 
z
" clip-path="url(#p1dba45cb3f)" style="fill: #87ceeb"/>
   </g>
   <g id="patch_42">
    <path d="M 502.414776 495.881081 
L 510.671517 495.881081 
L 510.671517 144.13027 
L 502.414776 144.13027 
z
" clip-path="url(#p1dba45cb3f)" style="fill: #87ceeb"/>
   </g>
   <g id="patch_43">
    <path d="M 512.735703 495.881081 
L 520.992444 495.881081 
L 520.992444 118.641081 
L 512.735703 118.641081 
z
" clip-path="url(#p1dba45cb3f)" style="fill: #87ceeb"/>
   </g>
   <g id="patch_44">
    <path d="M 523.056629 495.881081 
L 531.313371 495.881081 
L 531.313371 261.380541 
L 523.056629 261.380541 
z
" clip-path="url(#p1dba45cb3f)" style="fill: #87ceeb"/>
   </g>
   <g id="patch_45">
    <path d="M 533.377556 495.881081 
L 541.634297 495.881081 
L 541.634297 210.402162 
L 533.377556 210.402162 
z
" clip-path="url(#p1dba45cb3f)" style="fill: #87ceeb"/>
   </g>
   <g id="patch_46">
    <path d="M 543.698483 495.881081 
L 551.955224 495.881081 
L 551.955224 266.478378 
L 543.698483 266.478378 
z
" clip-path="url(#p1dba45cb3f)" style="fill: #87ceeb"/>
   </g>
   <g id="patch_47">
    <path d="M 554.019409 495.881081 
L 562.276151 495.881081 
L 562.276151 210.402162 
L 554.019409 210.402162 
z
" clip-path="url(#p1dba45cb3f)" style="fill: #87ceeb"/>
   </g>
   <g id="patch_48">
    <path d="M 564.340336 495.881081 
L 572.597077 495.881081 
L 572.597077 190.010811 
L 564.340336 190.010811 
z
" clip-path="url(#p1dba45cb3f)" style="fill: #87ceeb"/>
   </g>
   <g id="patch_49">
    <path d="M 574.661263 495.881081 
L 582.918004 495.881081 
L 582.918004 220.597838 
L 574.661263 220.597838 
z
" clip-path="url(#p1dba45cb3f)" style="fill: #87ceeb"/>
   </g>
   <g id="patch_50">
    <path d="M 584.982189 495.881081 
L 593.238931 495.881081 
L 593.238931 184.912973 
L 584.982189 184.912973 
z
" clip-path="url(#p1dba45cb3f)" style="fill: #87ceeb"/>
   </g>
   <g id="patch_51">
    <path d="M 595.303116 495.881081 
L 603.559857 495.881081 
L 603.559857 215.5 
L 595.303116 215.5 
z
" clip-path="url(#p1dba45cb3f)" style="fill: #87ceeb"/>
   </g>
   <g id="patch_52">
    <path d="M 605.624043 495.881081 
L 613.880784 495.881081 
L 613.880784 215.5 
L 605.624043 215.5 
z
" clip-path="url(#p1dba45cb3f)" style="fill: #87ceeb"/>
   </g>
   <g id="patch_53">
    <path d="M 615.944969 495.881081 
L 624.201711 495.881081 
L 624.201711 240.989189 
L 615.944969 240.989189 
z
" clip-path="url(#p1dba45cb3f)" style="fill: #87ceeb"/>
   </g>
   <g id="patch_54">
    <path d="M 626.265896 495.881081 
L 634.522637 495.881081 
L 634.522637 215.5 
L 626.265896 215.5 
z
" clip-path="url(#p1dba45cb3f)" style="fill: #87ceeb"/>
   </g>
   <g id="patch_55">
    <path d="M 636.586823 495.881081 
L 644.843564 495.881081 
L 644.843564 169.619459 
L 636.586823 169.619459 
z
" clip-path="url(#p1dba45cb3f)" style="fill: #87ceeb"/>
   </g>
   <g id="patch_56">
    <path d="M 646.907749 495.881081 
L 655.164491 495.881081 
L 655.164491 169.619459 
L 646.907749 169.619459 
z
" clip-path="url(#p1dba45cb3f)" style="fill: #87ceeb"/>
   </g>
   <g id="patch_57">
    <path d="M 657.228676 495.881081 
L 665.485417 495.881081 
L 665.485417 200.206486 
L 657.228676 200.206486 
z
" clip-path="url(#p1dba45cb3f)" style="fill: #87ceeb"/>
   </g>
   <g id="patch_58">
    <path d="M 667.549603 495.881081 
L 675.806344 495.881081 
L 675.806344 159.423784 
L 667.549603 159.423784 
z
" clip-path="url(#p1dba45cb3f)" style="fill: #87ceeb"/>
   </g>
   <g id="patch_59">
    <path d="M 677.870529 495.881081 
L 686.127271 495.881081 
L 686.127271 195.108649 
L 677.870529 195.108649 
z
" clip-path="url(#p1dba45cb3f)" style="fill: #87ceeb"/>
   </g>
   <g id="patch_60">
    <path d="M 688.191456 495.881081 
L 696.448197 495.881081 
L 696.448197 205.304324 
L 688.191456 205.304324 
z
" clip-path="url(#p1dba45cb3f)" style="fill: #87ceeb"/>
   </g>
   <g id="patch_61">
    <path d="M 698.512383 495.881081 
L 706.769124 495.881081 
L 706.769124 210.402162 
L 698.512383 210.402162 
z
" clip-path="url(#p1dba45cb3f)" style="fill: #87ceeb"/>
   </g>
   <g id="patch_62">
    <path d="M 708.833309 495.881081 
L 717.090051 495.881081 
L 717.090051 200.206486 
L 708.833309 200.206486 
z
" clip-path="url(#p1dba45cb3f)" style="fill: #87ceeb"/>
   </g>
   <g id="patch_63">
    <path d="M 719.154236 495.881081 
L 727.410977 495.881081 
L 727.410977 184.912973 
L 719.154236 184.912973 
z
" clip-path="url(#p1dba45cb3f)" style="fill: #87ceeb"/>
   </g>
   <g id="patch_64">
    <path d="M 729.475162 495.881081 
L 737.731904 495.881081 
L 737.731904 205.304324 
L 729.475162 205.304324 
z
" clip-path="url(#p1dba45cb3f)" style="fill: #87ceeb"/>
   </g>
   <g id="patch_65">
    <path d="M 739.796089 495.881081 
L 748.05283 495.881081 
L 748.05283 230.793514 
L 739.796089 230.793514 
z
" clip-path="url(#p1dba45cb3f)" style="fill: #87ceeb"/>
   </g>
   <g id="patch_66">
    <path d="M 750.117016 495.881081 
L 758.373757 495.881081 
L 758.373757 179.815135 
L 750.117016 179.815135 
z
" clip-path="url(#p1dba45cb3f)" style="fill: #87ceeb"/>
   </g>
   <g id="patch_67">
    <path d="M 760.437942 495.881081 
L 768.694684 495.881081 
L 768.694684 271.576216 
L 760.437942 271.576216 
z
" clip-path="url(#p1dba45cb3f)" style="fill: #87ceeb"/>
   </g>
   <g id="patch_68">
    <path d="M 770.758869 495.881081 
L 779.01561 495.881081 
L 779.01561 190.010811 
L 770.758869 190.010811 
z
" clip-path="url(#p1dba45cb3f)" style="fill: #87ceeb"/>
   </g>
   <g id="patch_69">
    <path d="M 781.079796 495.881081 
L 789.336537 495.881081 
L 789.336537 261.380541 
L 781.079796 261.380541 
z
" clip-path="url(#p1dba45cb3f)" style="fill: #87ceeb"/>
   </g>
   <g id="patch_70">
    <path d="M 791.400722 495.881081 
L 799.657464 495.881081 
L 799.657464 200.206486 
L 791.400722 200.206486 
z
" clip-path="url(#p1dba45cb3f)" style="fill: #87ceeb"/>
   </g>
   <g id="patch_71">
    <path d="M 801.721649 495.881081 
L 809.97839 495.881081 
L 809.97839 184.912973 
L 801.721649 184.912973 
z
" clip-path="url(#p1dba45cb3f)" style="fill: #87ceeb"/>
   </g>
   <g id="patch_72">
    <path d="M 812.042576 495.881081 
L 820.299317 495.881081 
L 820.299317 179.815135 
L 812.042576 179.815135 
z
" clip-path="url(#p1dba45cb3f)" style="fill: #87ceeb"/>
   </g>
   <g id="patch_73">
    <path d="M 822.363502 495.881081 
L 830.620244 495.881081 
L 830.620244 190.010811 
L 822.363502 190.010811 
z
" clip-path="url(#p1dba45cb3f)" style="fill: #87ceeb"/>
   </g>
   <g id="patch_74">
    <path d="M 832.684429 495.881081 
L 840.94117 495.881081 
L 840.94117 169.619459 
L 832.684429 169.619459 
z
" clip-path="url(#p1dba45cb3f)" style="fill: #87ceeb"/>
   </g>
   <g id="patch_75">
    <path d="M 843.005356 495.881081 
L 851.262097 495.881081 
L 851.262097 164.521622 
L 843.005356 164.521622 
z
" clip-path="url(#p1dba45cb3f)" style="fill: #87ceeb"/>
   </g>
   <g id="patch_76">
    <path d="M 853.326282 495.881081 
L 861.583024 495.881081 
L 861.583024 184.912973 
L 853.326282 184.912973 
z
" clip-path="url(#p1dba45cb3f)" style="fill: #87ceeb"/>
   </g>
   <g id="patch_77">
    <path d="M 863.647209 495.881081 
L 871.90395 495.881081 
L 871.90395 98.24973 
L 863.647209 98.24973 
z
" clip-path="url(#p1dba45cb3f)" style="fill: #87ceeb"/>
   </g>
   <g id="patch_78">
    <path d="M 873.968136 495.881081 
L 882.224877 495.881081 
L 882.224877 307.261081 
L 873.968136 307.261081 
z
" clip-path="url(#p1dba45cb3f)" style="fill: #87ceeb"/>
   </g>
   <g id="patch_79">
    <path d="M 884.289062 495.881081 
L 892.545804 495.881081 
L 892.545804 179.815135 
L 884.289062 179.815135 
z
" clip-path="url(#p1dba45cb3f)" style="fill: #87ceeb"/>
   </g>
   <g id="patch_80">
    <path d="M 894.609989 495.881081 
L 902.86673 495.881081 
L 902.86673 220.597838 
L 894.609989 220.597838 
z
" clip-path="url(#p1dba45cb3f)" style="fill: #87ceeb"/>
   </g>
   <g id="patch_81">
    <path d="M 904.930916 495.881081 
L 913.187657 495.881081 
L 913.187657 215.5 
L 904.930916 215.5 
z
" clip-path="url(#p1dba45cb3f)" style="fill: #87ceeb"/>
   </g>
   <g id="patch_82">
    <path d="M 915.251842 495.881081 
L 923.508584 495.881081 
L 923.508584 200.206486 
L 915.251842 200.206486 
z
" clip-path="url(#p1dba45cb3f)" style="fill: #87ceeb"/>
   </g>
   <g id="patch_83">
    <path d="M 925.572769 495.881081 
L 933.82951 495.881081 
L 933.82951 230.793514 
L 925.572769 230.793514 
z
" clip-path="url(#p1dba45cb3f)" style="fill: #87ceeb"/>
   </g>
   <g id="patch_84">
    <path d="M 935.893696 495.881081 
L 944.150437 495.881081 
L 944.150437 271.576216 
L 935.893696 271.576216 
z
" clip-path="url(#p1dba45cb3f)" style="fill: #87ceeb"/>
   </g>
   <g id="patch_85">
    <path d="M 946.214622 495.881081 
L 954.471364 495.881081 
L 954.471364 393.924324 
L 946.214622 393.924324 
z
" clip-path="url(#p1dba45cb3f)" style="fill: #87ceeb"/>
   </g>
   <g id="matplotlib.axis_1">
    <g id="xtick_1">
     <g id="line2d_1">
      <path d="M 733.603533 404.12 
L 733.603533 26.88 
" clip-path="url(#p1dba45cb3f)" style="fill: none; stroke: #b0b0b0; stroke-width: 0.8; stroke-linecap: square"/>
     </g>
     <g id="line2d_2">
      <defs>
       <path id="m4afdeff6b3" d="M 0 0 
L 0 3.5 
" style="stroke: #000000; stroke-width: 0.8"/>
      </defs>
      <g>
       <use xlink:href="#m4afdeff6b3" x="733.603533" y="404.12" style="stroke: #000000; stroke-width: 0.8"/>
      </g>
     </g>
     <g id="text_1">
      <!-- January -->
      <g transform="translate(714.648064 418.718437) scale(0.1 -0.1)">
       <defs>
        <path id="DejaVuSans-4a" d="M 628 4666 
L 1259 4666 
L 1259 325 
Q 1259 -519 939 -900 
Q 619 -1281 -91 -1281 
L -331 -1281 
L -331 -750 
L -134 -750 
Q 284 -750 456 -515 
Q 628 -281 628 325 
L 628 4666 
z
" transform="scale(0.015625)"/>
        <path id="DejaVuSans-61" d="M 2194 1759 
Q 1497 1759 1228 1600 
Q 959 1441 959 1056 
Q 959 750 1161 570 
Q 1363 391 1709 391 
Q 2188 391 2477 730 
Q 2766 1069 2766 1631 
L 2766 1759 
L 2194 1759 
z
M 3341 1997 
L 3341 0 
L 2766 0 
L 2766 531 
Q 2569 213 2275 61 
Q 1981 -91 1556 -91 
Q 1019 -91 701 211 
Q 384 513 384 1019 
Q 384 1609 779 1909 
Q 1175 2209 1959 2209 
L 2766 2209 
L 2766 2266 
Q 2766 2663 2505 2880 
Q 2244 3097 1772 3097 
Q 1472 3097 1187 3025 
Q 903 2953 641 2809 
L 641 3341 
Q 956 3463 1253 3523 
Q 1550 3584 1831 3584 
Q 2591 3584 2966 3190 
Q 3341 2797 3341 1997 
z
" transform="scale(0.015625)"/>
        <path id="DejaVuSans-6e" d="M 3513 2113 
L 3513 0 
L 2938 0 
L 2938 2094 
Q 2938 2591 2744 2837 
Q 2550 3084 2163 3084 
Q 1697 3084 1428 2787 
Q 1159 2491 1159 1978 
L 1159 0 
L 581 0 
L 581 3500 
L 1159 3500 
L 1159 2956 
Q 1366 3272 1645 3428 
Q 1925 3584 2291 3584 
Q 2894 3584 3203 3211 
Q 3513 2838 3513 2113 
z
" transform="scale(0.015625)"/>
        <path id="DejaVuSans-75" d="M 544 1381 
L 544 3500 
L 1119 3500 
L 1119 1403 
Q 1119 906 1312 657 
Q 1506 409 1894 409 
Q 2359 409 2629 706 
Q 2900 1003 2900 1516 
L 2900 3500 
L 3475 3500 
L 3475 0 
L 2900 0 
L 2900 538 
Q 2691 219 2414 64 
Q 2138 -91 1772 -91 
Q 1169 -91 856 284 
Q 544 659 544 1381 
z
M 1991 3584 
L 1991 3584 
z
" transform="scale(0.015625)"/>
        <path id="DejaVuSans-72" d="M 2631 2963 
Q 2534 3019 2420 3045 
Q 2306 3072 2169 3072 
Q 1681 3072 1420 2755 
Q 1159 2438 1159 1844 
L 1159 0 
L 581 0 
L 581 3500 
L 1159 3500 
L 1159 2956 
Q 1341 3275 1631 3429 
Q 1922 3584 2338 3584 
Q 2397 3584 2469 3576 
Q 2541 3569 2628 3553 
L 2631 2963 
z
" transform="scale(0.015625)"/>
        <path id="DejaVuSans-79" d="M 2059 -325 
Q 1816 -950 1584 -1140 
Q 1353 -1331 966 -1331 
L 506 -1331 
L 506 -850 
L 844 -850 
Q 1081 -850 1212 -737 
Q 1344 -625 1503 -206 
L 1606 56 
L 191 3500 
L 800 3500 
L 1894 763 
L 2988 3500 
L 3597 3500 
L 2059 -325 
z
" transform="scale(0.015625)"/>
       </defs>
       <use xlink:href="#DejaVuSans-4a"/>
       <use xlink:href="#DejaVuSans-61" x="29.492188"/>
       <use xlink:href="#DejaVuSans-6e" x="90.771484"/>
       <use xlink:href="#DejaVuSans-75" x="154.150391"/>
       <use xlink:href="#DejaVuSans-61" x="217.529297"/>
       <use xlink:href="#DejaVuSans-72" x="278.808594"/>
       <use xlink:href="#DejaVuSans-79" x="319.921875"/>
      </g>
     </g>
    </g>
    <g id="xtick_2">
     <g id="line2d_3">
      <path d="M 104.027007 404.12 
L 104.027007 26.88 
" clip-path="url(#p1dba45cb3f)" style="fill: none; stroke: #b0b0b0; stroke-width: 0.8; stroke-linecap: square"/>
     </g>
     <g id="line2d_4">
      <g>
       <use xlink:href="#m4afdeff6b3" x="104.027007" y="404.12" style="stroke: #000000; stroke-width: 0.8"/>
      </g>
     </g>
     <g id="text_2">
      <!-- November -->
      <g transform="translate(78.014507 418.718437) scale(0.1 -0.1)">
       <defs>
        <path id="DejaVuSans-4e" d="M 628 4666 
L 1478 4666 
L 3547 763 
L 3547 4666 
L 4159 4666 
L 4159 0 
L 3309 0 
L 1241 3903 
L 1241 0 
L 628 0 
L 628 4666 
z
" transform="scale(0.015625)"/>
        <path id="DejaVuSans-6f" d="M 1959 3097 
Q 1497 3097 1228 2736 
Q 959 2375 959 1747 
Q 959 1119 1226 758 
Q 1494 397 1959 397 
Q 2419 397 2687 759 
Q 2956 1122 2956 1747 
Q 2956 2369 2687 2733 
Q 2419 3097 1959 3097 
z
M 1959 3584 
Q 2709 3584 3137 3096 
Q 3566 2609 3566 1747 
Q 3566 888 3137 398 
Q 2709 -91 1959 -91 
Q 1206 -91 779 398 
Q 353 888 353 1747 
Q 353 2609 779 3096 
Q 1206 3584 1959 3584 
z
" transform="scale(0.015625)"/>
        <path id="DejaVuSans-76" d="M 191 3500 
L 800 3500 
L 1894 563 
L 2988 3500 
L 3597 3500 
L 2284 0 
L 1503 0 
L 191 3500 
z
" transform="scale(0.015625)"/>
        <path id="DejaVuSans-65" d="M 3597 1894 
L 3597 1613 
L 953 1613 
Q 991 1019 1311 708 
Q 1631 397 2203 397 
Q 2534 397 2845 478 
Q 3156 559 3463 722 
L 3463 178 
Q 3153 47 2828 -22 
Q 2503 -91 2169 -91 
Q 1331 -91 842 396 
Q 353 884 353 1716 
Q 353 2575 817 3079 
Q 1281 3584 2069 3584 
Q 2775 3584 3186 3129 
Q 3597 2675 3597 1894 
z
M 3022 2063 
Q 3016 2534 2758 2815 
Q 2500 3097 2075 3097 
Q 1594 3097 1305 2825 
Q 1016 2553 972 2059 
L 3022 2063 
z
" transform="scale(0.015625)"/>
        <path id="DejaVuSans-6d" d="M 3328 2828 
Q 3544 3216 3844 3400 
Q 4144 3584 4550 3584 
Q 5097 3584 5394 3201 
Q 5691 2819 5691 2113 
L 5691 0 
L 5113 0 
L 5113 2094 
Q 5113 2597 4934 2840 
Q 4756 3084 4391 3084 
Q 3944 3084 3684 2787 
Q 3425 2491 3425 1978 
L 3425 0 
L 2847 0 
L 2847 2094 
Q 2847 2600 2669 2842 
Q 2491 3084 2119 3084 
Q 1678 3084 1418 2786 
Q 1159 2488 1159 1978 
L 1159 0 
L 581 0 
L 581 3500 
L 1159 3500 
L 1159 2956 
Q 1356 3278 1631 3431 
Q 1906 3584 2284 3584 
Q 2666 3584 2933 3390 
Q 3200 3197 3328 2828 
z
" transform="scale(0.015625)"/>
        <path id="DejaVuSans-62" d="M 3116 1747 
Q 3116 2381 2855 2742 
Q 2594 3103 2138 3103 
Q 1681 3103 1420 2742 
Q 1159 2381 1159 1747 
Q 1159 1113 1420 752 
Q 1681 391 2138 391 
Q 2594 391 2855 752 
Q 3116 1113 3116 1747 
z
M 1159 2969 
Q 1341 3281 1617 3432 
Q 1894 3584 2278 3584 
Q 2916 3584 3314 3078 
Q 3713 2572 3713 1747 
Q 3713 922 3314 415 
Q 2916 -91 2278 -91 
Q 1894 -91 1617 61 
Q 1341 213 1159 525 
L 1159 0 
L 581 0 
L 581 4863 
L 1159 4863 
L 1159 2969 
z
" transform="scale(0.015625)"/>
       </defs>
       <use xlink:href="#DejaVuSans-4e"/>
       <use xlink:href="#DejaVuSans-6f" x="74.804688"/>
       <use xlink:href="#DejaVuSans-76" x="135.986328"/>
       <use xlink:href="#DejaVuSans-65" x="195.166016"/>
       <use xlink:href="#DejaVuSans-6d" x="256.689453"/>
       <use xlink:href="#DejaVuSans-62" x="354.101562"/>
       <use xlink:href="#DejaVuSans-65" x="417.578125"/>
       <use xlink:href="#DejaVuSans-72" x="479.101562"/>
      </g>
     </g>
    </g>
    <g id="xtick_3">
     <g id="line2d_5">
      <path d="M 413.654807 404.12 
L 413.654807 26.88 
" clip-path="url(#p1dba45cb3f)" style="fill: none; stroke: #b0b0b0; stroke-width: 0.8; stroke-linecap: square"/>
     </g>
     <g id="line2d_6">
      <g>
       <use xlink:href="#m4afdeff6b3" x="413.654807" y="404.12" style="stroke: #000000; stroke-width: 0.8"/>
      </g>
     </g>
     <g id="text_3">
      <!-- December -->
      <g transform="translate(387.725901 418.718437) scale(0.1 -0.1)">
       <defs>
        <path id="DejaVuSans-44" d="M 1259 4147 
L 1259 519 
L 2022 519 
Q 2988 519 3436 956 
Q 3884 1394 3884 2338 
Q 3884 3275 3436 3711 
Q 2988 4147 2022 4147 
L 1259 4147 
z
M 628 4666 
L 1925 4666 
Q 3281 4666 3915 4102 
Q 4550 3538 4550 2338 
Q 4550 1131 3912 565 
Q 3275 0 1925 0 
L 628 0 
L 628 4666 
z
" transform="scale(0.015625)"/>
        <path id="DejaVuSans-63" d="M 3122 3366 
L 3122 2828 
Q 2878 2963 2633 3030 
Q 2388 3097 2138 3097 
Q 1578 3097 1268 2742 
Q 959 2388 959 1747 
Q 959 1106 1268 751 
Q 1578 397 2138 397 
Q 2388 397 2633 464 
Q 2878 531 3122 666 
L 3122 134 
Q 2881 22 2623 -34 
Q 2366 -91 2075 -91 
Q 1284 -91 818 406 
Q 353 903 353 1747 
Q 353 2603 823 3093 
Q 1294 3584 2113 3584 
Q 2378 3584 2631 3529 
Q 2884 3475 3122 3366 
z
" transform="scale(0.015625)"/>
       </defs>
       <use xlink:href="#DejaVuSans-44"/>
       <use xlink:href="#DejaVuSans-65" x="77.001953"/>
       <use xlink:href="#DejaVuSans-63" x="138.525391"/>
       <use xlink:href="#DejaVuSans-65" x="193.505859"/>
       <use xlink:href="#DejaVuSans-6d" x="255.029297"/>
       <use xlink:href="#DejaVuSans-62" x="352.441406"/>
       <use xlink:href="#DejaVuSans-65" x="415.917969"/>
       <use xlink:href="#DejaVuSans-72" x="477.441406"/>
      </g>
     </g>
    </g>
   </g>
   <g id="matplotlib.axis_2">
    <g id="ytick_1">
     <g id="line2d_7">
      <path d="M 57.17 393.924324 
L 997.2 393.924324 
" clip-path="url(#p1dba45cb3f)" style="fill: none; stroke: #b0b0b0; stroke-width: 0.8; stroke-linecap: square"/>
     </g>
     <g id="line2d_8">
      <defs>
       <path id="m608e5a5dd7" d="M 0 0 
L -3.5 0 
" style="stroke: #000000; stroke-width: 0.8"/>
      </defs>
      <g>
       <use xlink:href="#m608e5a5dd7" x="57.17" y="393.924324" style="stroke: #000000; stroke-width: 0.8"/>
      </g>
     </g>
     <g id="text_4">
      <!-- 1000 -->
      <g transform="translate(24.72 397.723543) scale(0.1 -0.1)">
       <defs>
        <path id="DejaVuSans-31" d="M 794 531 
L 1825 531 
L 1825 4091 
L 703 3866 
L 703 4441 
L 1819 4666 
L 2450 4666 
L 2450 531 
L 3481 531 
L 3481 0 
L 794 0 
L 794 531 
z
" transform="scale(0.015625)"/>
        <path id="DejaVuSans-30" d="M 2034 4250 
Q 1547 4250 1301 3770 
Q 1056 3291 1056 2328 
Q 1056 1369 1301 889 
Q 1547 409 2034 409 
Q 2525 409 2770 889 
Q 3016 1369 3016 2328 
Q 3016 3291 2770 3770 
Q 2525 4250 2034 4250 
z
M 2034 4750 
Q 2819 4750 3233 4129 
Q 3647 3509 3647 2328 
Q 3647 1150 3233 529 
Q 2819 -91 2034 -91 
Q 1250 -91 836 529 
Q 422 1150 422 2328 
Q 422 3509 836 4129 
Q 1250 4750 2034 4750 
z
" transform="scale(0.015625)"/>
       </defs>
       <use xlink:href="#DejaVuSans-31"/>
       <use xlink:href="#DejaVuSans-30" x="63.623047"/>
       <use xlink:href="#DejaVuSans-30" x="127.246094"/>
       <use xlink:href="#DejaVuSans-30" x="190.869141"/>
      </g>
     </g>
    </g>
    <g id="ytick_2">
     <g id="line2d_9">
      <path d="M 57.17 342.945946 
L 997.2 342.945946 
" clip-path="url(#p1dba45cb3f)" style="fill: none; stroke: #b0b0b0; stroke-width: 0.8; stroke-linecap: square"/>
     </g>
     <g id="line2d_10">
      <g>
       <use xlink:href="#m608e5a5dd7" x="57.17" y="342.945946" style="stroke: #000000; stroke-width: 0.8"/>
      </g>
     </g>
     <g id="text_5">
      <!-- 1500 -->
      <g transform="translate(24.72 346.745165) scale(0.1 -0.1)">
       <defs>
        <path id="DejaVuSans-35" d="M 691 4666 
L 3169 4666 
L 3169 4134 
L 1269 4134 
L 1269 2991 
Q 1406 3038 1543 3061 
Q 1681 3084 1819 3084 
Q 2600 3084 3056 2656 
Q 3513 2228 3513 1497 
Q 3513 744 3044 326 
Q 2575 -91 1722 -91 
Q 1428 -91 1123 -41 
Q 819 9 494 109 
L 494 744 
Q 775 591 1075 516 
Q 1375 441 1709 441 
Q 2250 441 2565 725 
Q 2881 1009 2881 1497 
Q 2881 1984 2565 2268 
Q 2250 2553 1709 2553 
Q 1456 2553 1204 2497 
Q 953 2441 691 2322 
L 691 4666 
z
" transform="scale(0.015625)"/>
       </defs>
       <use xlink:href="#DejaVuSans-31"/>
       <use xlink:href="#DejaVuSans-35" x="63.623047"/>
       <use xlink:href="#DejaVuSans-30" x="127.246094"/>
       <use xlink:href="#DejaVuSans-30" x="190.869141"/>
      </g>
     </g>
    </g>
    <g id="ytick_3">
     <g id="line2d_11">
      <path d="M 57.17 291.967568 
L 997.2 291.967568 
" clip-path="url(#p1dba45cb3f)" style="fill: none; stroke: #b0b0b0; stroke-width: 0.8; stroke-linecap: square"/>
     </g>
     <g id="line2d_12">
      <g>
       <use xlink:href="#m608e5a5dd7" x="57.17" y="291.967568" style="stroke: #000000; stroke-width: 0.8"/>
      </g>
     </g>
     <g id="text_6">
      <!-- 2000 -->
      <g transform="translate(24.72 295.766786) scale(0.1 -0.1)">
       <defs>
        <path id="DejaVuSans-32" d="M 1228 531 
L 3431 531 
L 3431 0 
L 469 0 
L 469 531 
Q 828 903 1448 1529 
Q 2069 2156 2228 2338 
Q 2531 2678 2651 2914 
Q 2772 3150 2772 3378 
Q 2772 3750 2511 3984 
Q 2250 4219 1831 4219 
Q 1534 4219 1204 4116 
Q 875 4013 500 3803 
L 500 4441 
Q 881 4594 1212 4672 
Q 1544 4750 1819 4750 
Q 2544 4750 2975 4387 
Q 3406 4025 3406 3419 
Q 3406 3131 3298 2873 
Q 3191 2616 2906 2266 
Q 2828 2175 2409 1742 
Q 1991 1309 1228 531 
z
" transform="scale(0.015625)"/>
       </defs>
       <use xlink:href="#DejaVuSans-32"/>
       <use xlink:href="#DejaVuSans-30" x="63.623047"/>
       <use xlink:href="#DejaVuSans-30" x="127.246094"/>
       <use xlink:href="#DejaVuSans-30" x="190.869141"/>
      </g>
     </g>
    </g>
    <g id="ytick_4">
     <g id="line2d_13">
      <path d="M 57.17 240.989189 
L 997.2 240.989189 
" clip-path="url(#p1dba45cb3f)" style="fill: none; stroke: #b0b0b0; stroke-width: 0.8; stroke-linecap: square"/>
     </g>
     <g id="line2d_14">
      <g>
       <use xlink:href="#m608e5a5dd7" x="57.17" y="240.989189" style="stroke: #000000; stroke-width: 0.8"/>
      </g>
     </g>
     <g id="text_7">
      <!-- 2500 -->
      <g transform="translate(24.72 244.788408) scale(0.1 -0.1)">
       <use xlink:href="#DejaVuSans-32"/>
       <use xlink:href="#DejaVuSans-35" x="63.623047"/>
       <use xlink:href="#DejaVuSans-30" x="127.246094"/>
       <use xlink:href="#DejaVuSans-30" x="190.869141"/>
      </g>
     </g>
    </g>
    <g id="ytick_5">
     <g id="line2d_15">
      <path d="M 57.17 190.010811 
L 997.2 190.010811 
" clip-path="url(#p1dba45cb3f)" style="fill: none; stroke: #b0b0b0; stroke-width: 0.8; stroke-linecap: square"/>
     </g>
     <g id="line2d_16">
      <g>
       <use xlink:href="#m608e5a5dd7" x="57.17" y="190.010811" style="stroke: #000000; stroke-width: 0.8"/>
      </g>
     </g>
     <g id="text_8">
      <!-- 3000 -->
      <g transform="translate(24.72 193.81003) scale(0.1 -0.1)">
       <defs>
        <path id="DejaVuSans-33" d="M 2597 2516 
Q 3050 2419 3304 2112 
Q 3559 1806 3559 1356 
Q 3559 666 3084 287 
Q 2609 -91 1734 -91 
Q 1441 -91 1130 -33 
Q 819 25 488 141 
L 488 750 
Q 750 597 1062 519 
Q 1375 441 1716 441 
Q 2309 441 2620 675 
Q 2931 909 2931 1356 
Q 2931 1769 2642 2001 
Q 2353 2234 1838 2234 
L 1294 2234 
L 1294 2753 
L 1863 2753 
Q 2328 2753 2575 2939 
Q 2822 3125 2822 3475 
Q 2822 3834 2567 4026 
Q 2313 4219 1838 4219 
Q 1578 4219 1281 4162 
Q 984 4106 628 3988 
L 628 4550 
Q 988 4650 1302 4700 
Q 1616 4750 1894 4750 
Q 2613 4750 3031 4423 
Q 3450 4097 3450 3541 
Q 3450 3153 3228 2886 
Q 3006 2619 2597 2516 
z
" transform="scale(0.015625)"/>
       </defs>
       <use xlink:href="#DejaVuSans-33"/>
       <use xlink:href="#DejaVuSans-30" x="63.623047"/>
       <use xlink:href="#DejaVuSans-30" x="127.246094"/>
       <use xlink:href="#DejaVuSans-30" x="190.869141"/>
      </g>
     </g>
    </g>
    <g id="ytick_6">
     <g id="line2d_17">
      <path d="M 57.17 139.032432 
L 997.2 139.032432 
" clip-path="url(#p1dba45cb3f)" style="fill: none; stroke: #b0b0b0; stroke-width: 0.8; stroke-linecap: square"/>
     </g>
     <g id="line2d_18">
      <g>
       <use xlink:href="#m608e5a5dd7" x="57.17" y="139.032432" style="stroke: #000000; stroke-width: 0.8"/>
      </g>
     </g>
     <g id="text_9">
      <!-- 3500 -->
      <g transform="translate(24.72 142.831651) scale(0.1 -0.1)">
       <use xlink:href="#DejaVuSans-33"/>
       <use xlink:href="#DejaVuSans-35" x="63.623047"/>
       <use xlink:href="#DejaVuSans-30" x="127.246094"/>
       <use xlink:href="#DejaVuSans-30" x="190.869141"/>
      </g>
     </g>
    </g>
    <g id="ytick_7">
     <g id="line2d_19">
      <path d="M 57.17 88.054054 
L 997.2 88.054054 
" clip-path="url(#p1dba45cb3f)" style="fill: none; stroke: #b0b0b0; stroke-width: 0.8; stroke-linecap: square"/>
     </g>
     <g id="line2d_20">
      <g>
       <use xlink:href="#m608e5a5dd7" x="57.17" y="88.054054" style="stroke: #000000; stroke-width: 0.8"/>
      </g>
     </g>
     <g id="text_10">
      <!-- 4000 -->
      <g transform="translate(24.72 91.853273) scale(0.1 -0.1)">
       <defs>
        <path id="DejaVuSans-34" d="M 2419 4116 
L 825 1625 
L 2419 1625 
L 2419 4116 
z
M 2253 4666 
L 3047 4666 
L 3047 1625 
L 3713 1625 
L 3713 1100 
L 3047 1100 
L 3047 0 
L 2419 0 
L 2419 1100 
L 313 1100 
L 313 1709 
L 2253 4666 
z
" transform="scale(0.015625)"/>
       </defs>
       <use xlink:href="#DejaVuSans-34"/>
       <use xlink:href="#DejaVuSans-30" x="63.623047"/>
       <use xlink:href="#DejaVuSans-30" x="127.246094"/>
       <use xlink:href="#DejaVuSans-30" x="190.869141"/>
      </g>
     </g>
    </g>
    <g id="text_11">
     <!-- Total Calories in kcal -->
     <g transform="translate(18.640312 266.728906) rotate(-90) scale(0.1 -0.1)">
      <defs>
       <path id="DejaVuSans-54" d="M -19 4666 
L 3928 4666 
L 3928 4134 
L 2272 4134 
L 2272 0 
L 1638 0 
L 1638 4134 
L -19 4134 
L -19 4666 
z
" transform="scale(0.015625)"/>
       <path id="DejaVuSans-74" d="M 1172 4494 
L 1172 3500 
L 2356 3500 
L 2356 3053 
L 1172 3053 
L 1172 1153 
Q 1172 725 1289 603 
Q 1406 481 1766 481 
L 2356 481 
L 2356 0 
L 1766 0 
Q 1100 0 847 248 
Q 594 497 594 1153 
L 594 3053 
L 172 3053 
L 172 3500 
L 594 3500 
L 594 4494 
L 1172 4494 
z
" transform="scale(0.015625)"/>
       <path id="DejaVuSans-6c" d="M 603 4863 
L 1178 4863 
L 1178 0 
L 603 0 
L 603 4863 
z
" transform="scale(0.015625)"/>
       <path id="DejaVuSans-20" transform="scale(0.015625)"/>
       <path id="DejaVuSans-43" d="M 4122 4306 
L 4122 3641 
Q 3803 3938 3442 4084 
Q 3081 4231 2675 4231 
Q 1875 4231 1450 3742 
Q 1025 3253 1025 2328 
Q 1025 1406 1450 917 
Q 1875 428 2675 428 
Q 3081 428 3442 575 
Q 3803 722 4122 1019 
L 4122 359 
Q 3791 134 3420 21 
Q 3050 -91 2638 -91 
Q 1578 -91 968 557 
Q 359 1206 359 2328 
Q 359 3453 968 4101 
Q 1578 4750 2638 4750 
Q 3056 4750 3426 4639 
Q 3797 4528 4122 4306 
z
" transform="scale(0.015625)"/>
       <path id="DejaVuSans-69" d="M 603 3500 
L 1178 3500 
L 1178 0 
L 603 0 
L 603 3500 
z
M 603 4863 
L 1178 4863 
L 1178 4134 
L 603 4134 
L 603 4863 
z
" transform="scale(0.015625)"/>
       <path id="DejaVuSans-73" d="M 2834 3397 
L 2834 2853 
Q 2591 2978 2328 3040 
Q 2066 3103 1784 3103 
Q 1356 3103 1142 2972 
Q 928 2841 928 2578 
Q 928 2378 1081 2264 
Q 1234 2150 1697 2047 
L 1894 2003 
Q 2506 1872 2764 1633 
Q 3022 1394 3022 966 
Q 3022 478 2636 193 
Q 2250 -91 1575 -91 
Q 1294 -91 989 -36 
Q 684 19 347 128 
L 347 722 
Q 666 556 975 473 
Q 1284 391 1588 391 
Q 1994 391 2212 530 
Q 2431 669 2431 922 
Q 2431 1156 2273 1281 
Q 2116 1406 1581 1522 
L 1381 1569 
Q 847 1681 609 1914 
Q 372 2147 372 2553 
Q 372 3047 722 3315 
Q 1072 3584 1716 3584 
Q 2034 3584 2315 3537 
Q 2597 3491 2834 3397 
z
" transform="scale(0.015625)"/>
       <path id="DejaVuSans-6b" d="M 581 4863 
L 1159 4863 
L 1159 1991 
L 2875 3500 
L 3609 3500 
L 1753 1863 
L 3688 0 
L 2938 0 
L 1159 1709 
L 1159 0 
L 581 0 
L 581 4863 
z
" transform="scale(0.015625)"/>
      </defs>
      <use xlink:href="#DejaVuSans-54"/>
      <use xlink:href="#DejaVuSans-6f" x="44.083984"/>
      <use xlink:href="#DejaVuSans-74" x="105.265625"/>
      <use xlink:href="#DejaVuSans-61" x="144.474609"/>
      <use xlink:href="#DejaVuSans-6c" x="205.753906"/>
      <use xlink:href="#DejaVuSans-20" x="233.537109"/>
      <use xlink:href="#DejaVuSans-43" x="265.324219"/>
      <use xlink:href="#DejaVuSans-61" x="335.148438"/>
      <use xlink:href="#DejaVuSans-6c" x="396.427734"/>
      <use xlink:href="#DejaVuSans-6f" x="424.210938"/>
      <use xlink:href="#DejaVuSans-72" x="485.392578"/>
      <use xlink:href="#DejaVuSans-69" x="526.505859"/>
      <use xlink:href="#DejaVuSans-65" x="554.289062"/>
      <use xlink:href="#DejaVuSans-73" x="615.8125"/>
      <use xlink:href="#DejaVuSans-20" x="667.912109"/>
      <use xlink:href="#DejaVuSans-69" x="699.699219"/>
      <use xlink:href="#DejaVuSans-6e" x="727.482422"/>
      <use xlink:href="#DejaVuSans-20" x="790.861328"/>
      <use xlink:href="#DejaVuSans-6b" x="822.648438"/>
      <use xlink:href="#DejaVuSans-63" x="880.558594"/>
      <use xlink:href="#DejaVuSans-61" x="935.539062"/>
      <use xlink:href="#DejaVuSans-6c" x="996.818359"/>
     </g>
    </g>
   </g>
   <g id="line2d_21">
    <path d="M 104.027007 251.184865 
L 114.347934 269.027297 
L 124.66886 278.373333 
L 134.989787 274.125135 
L 145.310714 284.830595 
L 155.63164 272.425856 
L 165.952567 281.043629 
L 176.273494 284.320811 
L 186.59442 284.037598 
L 196.915347 283.301243 
L 207.236274 281.771892 
L 217.5572 282.621532 
L 227.878127 279.419044 
L 238.199054 286.505598 
L 248.51998 286.529874 
L 258.840907 285.59527 
L 269.161834 273.07558 
L 279.48276 270.443363 
L 289.803687 266.478378 
L 300.124614 261.125649 
L 310.44554 257.739228 
L 320.766467 255.124103 
L 331.087394 252.514736 
L 341.40832 255.857883 
L 351.729247 254.039654 
L 362.050173 247.851663 
L 372.3711 244.576557 
L 382.692027 239.350598 
L 393.012953 234.133476 
L 403.33388 234.022144 
L 413.654807 231.451299 
L 423.975733 229.041132 
L 434.29666 230.484554 
L 444.617587 227.719817 
L 454.938513 226.059807 
L 465.25944 225.341659 
L 475.580367 225.075668 
L 485.901293 225.226138 
L 496.22222 223.016043 
L 506.543147 221.043899 
L 516.864073 218.546269 
L 527.185 219.566133 
L 537.505927 219.353017 
L 547.826853 220.424048 
L 558.14778 220.201339 
L 568.468707 219.545024 
L 578.789633 219.567424 
L 589.11056 218.845456 
L 599.431487 218.777181 
L 609.752413 218.711638 
L 620.07334 219.148453 
L 630.394267 219.07829 
L 640.715193 218.145105 
L 651.03612 217.246481 
L 661.357047 216.936663 
L 671.677973 215.909648 
L 681.9989 215.544718 
L 692.319827 215.368159 
L 702.640753 215.28399 
L 712.96168 215.032698 
L 723.282606 214.538932 
L 733.603533 214.389987 
L 743.92446 214.65036 
L 754.245386 214.10606 
L 764.566313 214.990216 
L 774.88724 214.61174 
L 785.208166 215.309782 
L 795.529093 215.087675 
L 805.85002 214.65036 
L 816.170946 214.152714 
L 826.491873 213.812687 
L 836.8128 213.198893 
L 847.133726 212.532081 
L 857.454653 212.15885 
L 867.77558 210.640061 
L 878.096506 211.91139 
L 888.417433 211.494556 
L 898.73836 211.611265 
L 909.059286 211.660489 
L 919.380213 211.517314 
L 929.70114 211.755292 
L 940.022066 212.484815 
L 950.342993 214.670834 
" clip-path="url(#p1dba45cb3f)" style="fill: none; stroke: #ff0000; stroke-width: 3; stroke-linecap: square"/>
   </g>
   <g id="patch_86">
    <path d="M 57.17 404.12 
L 57.17 26.88 
" style="fill: none; stroke: #000000; stroke-width: 0.8; stroke-linejoin: miter; stroke-linecap: square"/>
   </g>
   <g id="patch_87">
    <path d="M 997.2 404.12 
L 997.2 26.88 
" style="fill: none; stroke: #000000; stroke-width: 0.8; stroke-linejoin: miter; stroke-linecap: square"/>
   </g>
   <g id="patch_88">
    <path d="M 57.17 404.12 
L 997.2 404.12 
" style="fill: none; stroke: #000000; stroke-width: 0.8; stroke-linejoin: miter; stroke-linecap: square"/>
   </g>
   <g id="patch_89">
    <path d="M 57.17 26.88 
L 997.2 26.88 
" style="fill: none; stroke: #000000; stroke-width: 0.8; stroke-linejoin: miter; stroke-linecap: square"/>
   </g>
   <g id="text_12">
    <!-- Daily calories -->
    <g transform="translate(486.83125 20.88) scale(0.12 -0.12)">
     <use xlink:href="#DejaVuSans-44"/>
     <use xlink:href="#DejaVuSans-61" x="77.001953"/>
     <use xlink:href="#DejaVuSans-69" x="138.28125"/>
     <use xlink:href="#DejaVuSans-6c" x="166.064453"/>
     <use xlink:href="#DejaVuSans-79" x="193.847656"/>
     <use xlink:href="#DejaVuSans-20" x="253.027344"/>
     <use xlink:href="#DejaVuSans-63" x="284.814453"/>
     <use xlink:href="#DejaVuSans-61" x="339.794922"/>
     <use xlink:href="#DejaVuSans-6c" x="401.074219"/>
     <use xlink:href="#DejaVuSans-6f" x="428.857422"/>
     <use xlink:href="#DejaVuSans-72" x="490.039062"/>
     <use xlink:href="#DejaVuSans-69" x="531.152344"/>
     <use xlink:href="#DejaVuSans-65" x="558.935547"/>
     <use xlink:href="#DejaVuSans-73" x="620.458984"/>
    </g>
   </g>
  </g>
 </g>
 <defs>
  <clipPath id="p1dba45cb3f">
   <rect x="57.17" y="26.88" width="940.03" height="377.24"/>
  </clipPath>
 </defs>
</svg>
